<svg width="16" height="16" viewBox="0 0 16 16" fill="none" xmlns="http://www.w3.org/2000/svg">
<g clip-path="url(#clip0_3_2527)">
<path d="M9 10H12V13H9V10Z" fill="white"/>
<path fill-rule="evenodd" clip-rule="evenodd" d="M3 1.00009C3 0.4478 3.44771 9.15527e-05 4 9.15527e-05C4.55229 9.15527e-05 5 0.4478 5 1.00009V2.00009H11V1.00009C11 0.4478 11.4477 9.15527e-05 12 9.15527e-05C12.5523 9.15527e-05 13 0.4478 13 1.00009V2.00009C14.1046 2.00009 15 2.89552 15 4.00009V14.0001C15 15.1047 14.1046 16.0001 13 16.0001H3C1.89543 16.0001 1 15.1047 1 14.0001V4.00009C1 2.89552 1.89543 2.00009 3 2.00009V1.00009ZM13 14.0001V8.00009H3V14.0001H13ZM3 5.00009C3 4.4478 3.44771 4.00009 4 4.00009H12C12.5523 4.00009 13 4.4478 13 5.00009V6.00009H3V5.00009Z" fill="white"/>
</g>
<defs>
<clipPath id="clip0_3_2527">
<rect width="16" height="16" fill="white"/>
</clipPath>
</defs>
</svg>
